<svg xmlns="http://www.w3.org/2000/svg" viewBox="0 0 256 256" role="img" aria-label="ODD icon">
  <defs>
    <linearGradient id="bg" x1="0" y1="0" x2="1" y2="1">
      <stop offset="0" stop-color="#ff4fa8"/>
      <stop offset="0.45" stop-color="#7f45ff"/>
      <stop offset="1" stop-color="#0bbbd3"/>
    </linearGradient>
    <radialGradient id="glow" cx="35%" cy="28%" r="80%">
      <stop offset="0" stop-color="#ffffff" stop-opacity="0.55"/>
      <stop offset="0.45" stop-color="#80f0ff" stop-opacity="0.18"/>
      <stop offset="1" stop-color="#050915" stop-opacity="0"/>
    </radialGradient>
    <radialGradient id="eye" cx="35%" cy="30%" r="75%">
      <stop offset="0" stop-color="#ffffff"/>
      <stop offset="0.78" stop-color="#eef2ff"/>
      <stop offset="1" stop-color="#c4c9df"/>
    </radialGradient>
    <radialGradient id="iris" cx="35%" cy="30%" r="75%">
      <stop offset="0" stop-color="#a7f3ff"/>
      <stop offset="0.58" stop-color="#2187d7"/>
      <stop offset="1" stop-color="#0a2d62"/>
    </radialGradient>
  </defs>
  <rect x="12" y="12" width="232" height="232" rx="56" fill="url(#bg)"/>
  <rect x="12" y="12" width="232" height="232" rx="56" fill="#050915" opacity="0.2"/>
  <circle cx="128" cy="128" r="112" fill="url(#glow)"/>
  <path d="M178 50 C210 24 220 4 222 0" fill="none" stroke="#10081f" stroke-width="12" stroke-linecap="round"/>
  <ellipse cx="130" cy="188" rx="66" ry="11" fill="#12081f" opacity="0.38"/>
  <circle cx="128" cy="132" r="78" fill="url(#eye)"/>
  <circle cx="108" cy="116" r="35" fill="url(#iris)"/>
  <circle cx="108" cy="116" r="16" fill="#071323"/>
  <circle cx="99" cy="106" r="7" fill="#ffffff"/>
  <circle cx="118" cy="126" r="4" fill="#ffffff" opacity="0.78"/>
  <path d="M198 184 l7 18 l18 6 l-18 6 l-7 18 l-7 -18 l-18 -6 l18 -6z" fill="#fff0b8" opacity="0.95"/>
</svg>
