<svg xmlns="http://www.w3.org/2000/svg" width="1024" height="1024" viewBox="0 0 1024 1024" role="img" aria-label="Signal Bloom cursor effects preview">
  <rect width="1024" height="1024" rx="160" fill="#07131f"/>
  <rect x="124" y="154" width="776" height="548" rx="48" fill="#0d1f2d" stroke="#68fff0" stroke-width="8" opacity=".86"/>
  <path d="M176 232 H466 M176 304 H764 M176 366 H684" stroke="#68fff0" stroke-width="28" stroke-linecap="round" opacity=".22"/>
  <circle cx="390" cy="418" r="156" fill="none" stroke="#68fff0" stroke-width="8" opacity=".18"/>
  <circle cx="390" cy="418" r="110" fill="none" stroke="#68fff0" stroke-width="14" opacity=".52"/>
  <circle cx="390" cy="418" r="68" fill="none" stroke="#68fff0" stroke-width="16"/>
  <rect x="280" y="518" width="24" height="24" rx="4" fill="#68fff0" opacity=".66"/>
  <rect x="242" y="558" width="14" height="14" rx="3" fill="#68fff0" opacity=".44"/>
  <path d="M520 310 l34 -34 M552 352 h54 M522 394 l40 40" stroke="#ff4fd8" stroke-width="18" stroke-linecap="round"/>
  <g transform="translate(390 418) scale(5.4)" stroke-linejoin="round">
    <path d="M0 0 L0 78 L22 57 L36 91 L55 83 L40 50 L70 50 Z" fill="#fff" stroke="#101010" stroke-width="4.2"/>
  </g>
  <text x="126" y="106" font-family="Inter, system-ui, sans-serif" font-size="76" font-weight="900" fill="#f7fff9">Signal Bloom</text>
  <text x="130" y="148" font-family="Inter, system-ui, sans-serif" font-size="30" font-weight="800" fill="#68fff0">radar pings behind the native cursor</text>
</svg>
