<svg xmlns="http://www.w3.org/2000/svg" viewBox="0 0 64 64" fill="none">
	<defs>
		<linearGradient id="bg" x1="8" y1="8" x2="56" y2="56" gradientUnits="userSpaceOnUse">
			<stop stop-color="#ffb86b"/>
			<stop offset="0.52" stop-color="#ff3d9a"/>
			<stop offset="1" stop-color="#64f4ff"/>
		</linearGradient>
		<linearGradient id="tile" x1="17" y1="17" x2="47" y2="47" gradientUnits="userSpaceOnUse">
			<stop stop-color="#fff4dc"/>
			<stop offset="1" stop-color="#ffd1e1"/>
		</linearGradient>
	</defs>
	<rect x="6" y="6" width="52" height="52" rx="14" fill="#12051f"/>
	<rect x="8" y="8" width="48" height="48" rx="12" fill="url(#bg)" opacity="0.28"/>
	<g stroke="#fff4dc" stroke-width="2" stroke-linecap="round" stroke-linejoin="round">
		<rect x="17" y="17" width="30" height="30" rx="7" fill="url(#tile)"/>
		<path d="M27 17v30M37 17v30M17 27h30M17 37h30" opacity="0.65"/>
	</g>
	<path d="M23 24h8a6 6 0 0 1 0 12h-2.5L24 40v-4h-1a6 6 0 0 1 0-12Z" fill="#64f4ff" stroke="#12051f" stroke-width="2" stroke-linejoin="round"/>
	<path d="M39 21v16" stroke="#12051f" stroke-width="3" stroke-linecap="round"/>
	<path d="M39 22h9l-2.5 4L48 30h-9Z" fill="#ff3d9a" stroke="#12051f" stroke-width="2" stroke-linejoin="round"/>
	<circle cx="25" cy="30" r="1.4" fill="#12051f"/>
	<circle cx="31" cy="30" r="1.4" fill="#12051f"/>
</svg>
