<svg xmlns="http://www.w3.org/2000/svg" width="1024" height="1024" viewBox="0 0 1024 1024" role="img" aria-label="Paper Sparks cursor effects preview">
  <rect width="1024" height="1024" rx="150" fill="#f8f1df"/>
  <rect x="124" y="154" width="776" height="548" rx="24" fill="#fff7e7" stroke="#172033" stroke-width="8" opacity=".88"/>
  <path d="M176 232 H466 M176 304 H764 M176 366 H684" stroke="#2f6df6" stroke-width="26" stroke-linecap="round" opacity=".2"/>
  <rect x="296" y="334" width="174" height="174" rx="10" fill="none" stroke="#2f6df6" stroke-width="18" transform="rotate(10 383 421)"/>
  <rect x="514" y="304" width="34" height="34" rx="4" fill="#ff6b35" transform="rotate(18 531 321)"/>
  <rect x="562" y="372" width="56" height="18" rx="3" fill="#f4d35e" transform="rotate(-8 590 381)"/>
  <rect x="286" y="520" width="26" height="26" rx="4" fill="#2f6df6" opacity=".65" transform="rotate(12 299 533)"/>
  <rect x="240" y="558" width="16" height="16" rx="3" fill="#ff6b35" opacity=".58"/>
  <g transform="translate(390 418) scale(5.4)" stroke-linejoin="round">
    <path d="M0 0 L0 78 L22 57 L36 91 L55 83 L40 50 L70 50 Z" fill="#fff" stroke="#101010" stroke-width="4.2"/>
  </g>
  <text x="126" y="106" font-family="Inter, system-ui, sans-serif" font-size="76" font-weight="900" fill="#172033">Paper Sparks</text>
  <text x="130" y="148" font-family="Inter, system-ui, sans-serif" font-size="30" font-weight="800" fill="#2f6df6">risograph sparks behind the native cursor</text>
</svg>
