<svg xmlns="http://www.w3.org/2000/svg" width="1024" height="1024" viewBox="0 0 1024 1024" role="img" aria-label="ODD Default cursor effects preview">
  <rect width="1024" height="1024" rx="150" fill="#fffaf1"/>
  <rect x="124" y="154" width="776" height="548" rx="48" fill="#ffffff" stroke="#19091f" stroke-width="10" opacity=".72"/>
  <rect x="168" y="210" width="296" height="44" rx="22" fill="#19091f" opacity=".12"/>
  <rect x="168" y="286" width="508" height="34" rx="17" fill="#42d9d2" opacity=".2"/>
  <rect x="168" y="344" width="618" height="34" rx="17" fill="#19091f" opacity=".08"/>
  <circle cx="380" cy="414" r="124" fill="#42d9d2" opacity=".1"/>
  <circle cx="380" cy="414" r="82" fill="none" stroke="#42d9d2" stroke-width="16"/>
  <circle cx="318" cy="488" r="22" fill="#42d9d2" opacity=".55"/>
  <circle cx="282" cy="528" r="13" fill="#42d9d2" opacity=".34"/>
  <path d="M510 314 l34 -34 M542 356 h52 M514 398 l38 38" fill="none" stroke="#ff4f8b" stroke-width="18" stroke-linecap="round"/>
  <g transform="translate(380 414) scale(5.6)" stroke-linejoin="round">
    <path d="M0 0 L0 78 L22 57 L36 91 L55 83 L40 50 L70 50 Z" fill="#ffffff" stroke="#111111" stroke-width="5"/>
    <path d="M7 13 L7 61 L21 47 L38 78" fill="none" stroke="#ffffff" stroke-width="6" stroke-linecap="round" opacity=".9"/>
  </g>
  <text x="126" y="828" font-family="Inter, system-ui, sans-serif" font-size="82" font-weight="900" fill="#19091f">ODD Default</text>
  <text x="130" y="888" font-family="Inter, system-ui, sans-serif" font-size="34" font-weight="800" fill="#42d9d2">living layer behind the native cursor</text>
</svg>
